<svg width="20" height="20" fill="none" xmlns="http://www.w3.org/2000/svg"><g clip-path="url(#clip0_13_6710)"><path d="M19.672 12.335c-1.335 5.337-6.746 8.6-12.109 7.265-5.337-1.335-8.6-6.746-7.265-12.108 1.335-5.338 6.746-8.6 12.108-7.265 5.338 1.334 8.6 6.746 7.266 12.108z" fill="#F7931A"/><path d="M14.384 8.48c.198-1.334-.816-2.05-2.2-2.52l.445-1.804-1.087-.271-.445 1.755a11.508 11.508 0 00-.889-.198l.445-1.755-1.087-.271-.445 1.803a5.657 5.657 0 01-.692-.173l-1.507-.37-.296 1.161.79.198c.445.099.52.395.52.643l-.52 2.05c.024 0 .074.025.123.025-.025 0-.074-.025-.124-.025L6.7 11.594c-.05.124-.198.343-.495.272 0 .025-.79-.198-.79-.198l-.544 1.26 1.433.344c.272.074.52.148.79.197L6.65 15.3l1.087.27.445-1.803.868.226-.445 1.803 1.088.272.444-1.829c1.878.344 3.262.223 3.855-1.482.47-1.359-.025-2.153-1.013-2.669.742-.148 1.26-.618 1.409-1.606h-.003zm-2.496 3.534c-.343 1.359-2.62.617-3.36.444l.592-2.421c.742.173 3.114.543 2.768 1.977zm.343-3.534c-.296 1.236-2.224.618-2.841.445l.543-2.2c.618.173 2.62.445 2.298 1.755z" fill="#fff"/></g><defs><clipPath id="clip0_13_6710"><path fill="#fff" d="M0 0h19.971v20H0z"/></clipPath></defs></svg>