<svg width="20" height="20" fill="none" xmlns="http://www.w3.org/2000/svg"><g clip-path="url(#clip0_13_6740)" fill="#C9A91E"><path d="M19.97 10c-.011 5.329-4.228 9.982-10 9.97C4.36 19.96.014 15.59 0 10.02-.02 4.142 4.735-.016 10.04 0c5.46.016 9.934 4.513 9.93 10zM8.616 16.227c.83 0 1.665.004 2.496 0 2.372-.008 4.334-1.517 4.997-3.795.327-1.12.25-2.258.238-3.393-.028-2.973-2.36-5.293-5.332-5.32-1.724-.016-3.448.007-5.172-.012-.406-.004-.535.132-.527.53.02 1.33.008 2.66.008 3.986 0 .656 0 .652-.66.656-1.236.007-1.072-.125-1.08 1.068-.008 1.174 0 1.174 1.182 1.19.53.008.554.031.558.585.004 1.315.015 2.629-.008 3.944-.008.452.152.58.585.569.905-.027 1.81-.008 2.715-.008z"/><path d="M9.642 6.132c.421.015.96-.008 1.498.097 1.4.277 2.207 1.116 2.453 2.504.168.94.219 1.888.04 2.828-.262 1.366-1.315 2.294-2.77 2.477-.8.102-1.603.09-2.403.09-.308 0-.452-.11-.445-.437.016-.702.016-1.4 0-2.102-.007-.351.145-.468.472-.457.437.012.878-.008 1.315.004.296.008.429-.105.421-.41-.012-.48-.012-.963 0-1.446.008-.305-.125-.418-.421-.41-.437.012-.878-.008-1.315.004-.331.012-.48-.11-.472-.456.016-.628.012-1.256.004-1.884-.004-.3.117-.426.418-.418.359.024.721.016 1.205.016z"/></g><defs><clipPath id="clip0_13_6740"><path fill="#fff" d="M0 0h19.971v20H0z"/></clipPath></defs></svg>