<svg width="27" height="20" fill="none" xmlns="http://www.w3.org/2000/svg"><g clip-path="url(#clip0_13_6788)"><path d="M6.255 0h14.153v20H6.255V0z" fill="#fff"/><path d="M-.819 0h7.074v20H-.819V0zm21.227 0h7.074v20h-7.07l-.004-20zM8.377 9.664l-.555.188 2.558 2.246c.196.574-.066.742-.234 1.046l2.774-.351-.067 2.793.578-.016-.129-2.773 2.782.332c-.172-.363-.325-.555-.168-1.133l2.554-2.129-.445-.164c-.367-.281.156-1.355.234-2.035 0 0-1.488.512-1.585.242l-.383-.73-1.356 1.492c-.148.035-.21-.024-.246-.149l.625-3.117-.992.559c-.082.039-.164.008-.219-.09l-.957-1.914-.984 1.988c-.075.07-.149.078-.211.031l-.946-.53.57 3.09c-.046.124-.155.155-.28.089L9.994 7.156c-.168.274-.281.715-.508.817-.223.093-.977-.188-1.48-.297.171.62.71 1.652.37 1.992v-.004z" fill="#D52B1E"/><path d="M26.664 0H0v20h26.664V0z" fill="#314199"/><path d="M13.345 15.126l.262.779h.803l-.57.43.156.834-.651-.472-.654.461.159-.823-.564-.434h.802l.257-.775zm0-13.526l.262.777h.803l-.57.43.156.837-.651-.474-.654.46.159-.822-.564-.433h.802l.257-.775zm3.259.869l.263.779h.802l-.57.43.156.834-.651-.474-.655.463.158-.823-.562-.434h.8l.259-.775zm-6.674 0l.262.779h.802l-.57.43.157.834-.651-.474-.654.463.158-.823-.564-.434h.802l.258-.775zm6.674 11.742l.263.78h.802l-.57.43.156.836-.651-.474-.655.46.158-.822-.562-.434h.8l.259-.776zm-6.674 0l.262.78h.802l-.57.43.157.836-.651-.474-.654.46.158-.822-.564-.434h.802l.258-.776zM7.434 5.02l.263.78H8.5l-.57.43.157.837-.652-.475-.655.461.16-.823-.564-.434h.8l.26-.775zm11.746 0l.264.78h.802l-.57.43.156.837-.651-.475-.655.461.16-.823-.564-.434h.8l.259-.775zM7.434 11.773l.263.78.802-.003-.57.43.157.837-.652-.474-.655.463.16-.825-.564-.432h.8l.26-.776zm11.746 0l.264.78.802-.003-.57.43.156.837-.651-.474-.655.463.16-.825-.564-.432h.8l.259-.776zM6.659 8.371l.263.78h.802l-.57.43.156.836-.651-.474-.655.46.16-.822-.564-.434h.8l.259-.776zm13.381 0l.263.78h.802l-.57.43.156.836-.651-.474-.653.46.158-.822-.564-.434h.802l.257-.776z" fill="#F8EC26"/></g><defs><clipPath id="clip0_13_6788"><path fill="#fff" d="M0 0h26.667v20H0z"/></clipPath></defs></svg>