<svg width="20" height="20" fill="none" xmlns="http://www.w3.org/2000/svg"><path d="M19.97 9.985a9.945 9.945 0 01-.336 2.575 9.61 9.61 0 01-.768 1.981A9.985 9.985 0 113.663 2.26 10.091 10.091 0 017.408.337 9.942 9.942 0 019.985 0a9.835 9.835 0 013.68.705c.264.1.522.216.773.347.11.052.22.11.33.174a9.744 9.744 0 011.745 1.208c.367.314.71.657 1.024 1.023a9.69 9.69 0 011.207 1.745 8.96 8.96 0 01.808 1.944c.28.92.42 1.877.419 2.84z" fill="#005D9F"/><path d="M7.196 11.546l-.793.312c-.044.018-.094.056-.137.018-.044-.037 0-.096 0-.143.068-.278.14-.559.209-.837a.253.253 0 01.178-.196c.221-.081.44-.181.664-.256a.337.337 0 00.237-.275c.353-1.432.715-2.864 1.068-4.296.043-.181.112-.25.293-.247h2.122c.237 0 .243 0 .184.247l-.774 3.12c0 .06-.065.134 0 .181.066.047.112 0 .169-.034l.73-.29c.05-.02.106-.066.153-.029.046.038 0 .11 0 .16-.063.268-.135.533-.197.801a.284.284 0 01-.197.225c-.284.106-.567.225-.851.33a.271.271 0 00-.181.216c-.15.624-.312 1.248-.462 1.872-.053.21-.038.231.175.231h3.79c.144 0 .179.05.138.2-.114.433-.218.867-.312 1.304a.223.223 0 01-.16.2.222.222 0 01-.09.006c-2.14-.008-4.278-.012-6.412-.012-.218 0-.228 0-.168-.247.195-.803.397-1.605.605-2.405 0-.041 0-.085.019-.156z" fill="#F7FEFF"/></svg>