<svg width="15" height="15" fill="none" xmlns="http://www.w3.org/2000/svg"><path d="M7.5 3.105A4.4 4.4 0 003.105 7.5 4.4 4.4 0 007.5 11.895 4.4 4.4 0 0011.894 7.5 4.4 4.4 0 007.5 3.105zm4.561 7.032a5.298 5.298 0 01-1.933 1.933l2.645.712-.712-2.645zM7.5 0L6.146 2.411A4.94 4.94 0 017.5 2.227c.466 0 .923.061 1.353.184L7.5 0zM2.226 2.227l.712 2.636a5.227 5.227 0 011.916-1.925l-2.628-.711zm.185 3.911L.009 7.5 2.41 8.862A4.95 4.95 0 012.226 7.5c0-.475.062-.932.185-1.362zm.527 3.999l-.712 2.645 2.646-.712a5.298 5.298 0 01-1.934-1.933zM7.5 12.773a5.06 5.06 0 01-1.371-.184L7.499 15l1.372-2.411a5.06 5.06 0 01-1.371.184zm2.641-9.83a5.305 5.305 0 011.92 1.922l.715-2.637-2.635.715zm4.85 4.561l-2.4-1.359c.115.433.182.886.182 1.355 0 .473-.068.929-.185 1.365l2.403-1.36z" fill="#333"/></svg>